<?xml version="1.0" encoding="UTF-8"?>
<svg id="Layer_2" data-name="Layer 2" xmlns="http://www.w3.org/2000/svg" viewBox="0 0 400 146.46">
    <defs>
        <style>
            .cls-1 {
            fill: #e40138;
            }
        </style>
    </defs>
    <g id="Layer_1-2" data-name="Layer 1">
        <path class="cls-1" d="M396.22,36.27L362.21,2.26c-3.26-3.26-8.68-2.97-11.47,.7-33.24,43.54-88.35,72.02-150.73,72.02-62.38,0-117.49-28.49-150.73-72.02-2.8-3.66-8.21-3.95-11.47-.7L3.78,36.27c-4.64,4.64-5.09,12.07-.92,17.12,46.81,56.8,117.68,93.02,197.01,93.06h0s0,0,0,0c.04,0,.08,0,.12,0s.08,0,.12,0c0,0,0,0,0,0h0c79.34-.04,150.21-36.26,197.01-93.06,4.17-5.06,3.72-12.49-.92-17.12Z"/>
    </g>
</svg>