<?xml version="1.0" encoding="utf-8"?>
<!-- Generator: Adobe Illustrator 27.0.0, SVG Export Plug-In . SVG Version: 6.00 Build 0)  -->
<svg version="1.1" id="Layer_1" xmlns="http://www.w3.org/2000/svg" xmlns:xlink="http://www.w3.org/1999/xlink" x="0px" y="0px"
	 viewBox="0 0 407 64" style="enable-background:new 0 0 407 64;" xml:space="preserve">
<style type="text/css">
	.st0{fill:#FFFFFF;}
</style>
<g>
	<g>
		<path class="st0" d="M401.8,18.3L388.3,4.8c-1.3-1.3-3.4-1.2-4.5,0.3c-13.2,17.3-35,28.6-59.8,28.6c-24.7,0-46.6-11.3-59.8-28.6
			c-1.1-1.5-3.3-1.6-4.5-0.3l-13.5,13.5c-1.8,1.8-2,4.8-0.4,6.8c18.6,22.5,46.7,36.9,78.1,36.9v0c0,0,0,0,0,0c0,0,0,0,0,0
			c0,0,0,0,0,0c0,0,0,0,0,0v0c31.5,0,59.6-14.4,78.1-36.9C403.8,23,403.6,20.1,401.8,18.3z"/>
	</g>
	<g>
		<path class="st0" d="M202.8,15.8h-4.9c0,0,0,0,0,0h-10.3c-0.9,0-1.7,0.7-1.7,1.7v5c0,0.9,0.7,1.7,1.7,1.7h10.3c0,0,0,0,0,0h6.5
			c1.4,0,2.5,1.1,2.5,2.5v11.7c0,1.4-1.1,2.5-2.5,2.5l0,0H198c0,0,0,0,0,0h-10.3c-0.9,0-1.7,0.7-1.7,1.7v5c0,0.9,0.7,1.7,1.7,1.7
			h6.1h9.1c6.9,0,12.5-5.6,12.5-12.5v-8.4C215.3,21.5,209.7,15.8,202.8,15.8z"/>
		<path class="st0" d="M11.4,35.6c0.2,0.7,0.9,1.1,1.6,1.1h5.3c1.2,0,2-1.2,1.6-2.3L12,12.8c-0.2-0.7-0.9-1.1-1.6-1.1H5
			c-1.2,0-2,1.1-1.6,2.2L11.4,35.6z"/>
		<path class="st0" d="M148.1,53.5h-5c-0.9,0-1.7,0.7-1.7,1.7v5.1c0,0.9,0.7,1.7,1.7,1.7h5c0.9,0,1.7-0.7,1.7-1.7v-5.1
			C149.8,54.3,149,53.5,148.1,53.5z"/>
		<path class="st0" d="M177.3,53.5h-5c0,0-0.1,0-0.1,0c0,0-0.1,0-0.1,0h-8.1c-0.9,0-1.7,0.7-1.7,1.7v5.1c0,0.9,0.7,1.7,1.7,1.7h8.1
			c0,0,0.1,0,0.1,0c0,0,0.1,0,0.1,0h5c0.9,0,1.7-0.7,1.7-1.7v-5.1C179,54.3,178.2,53.5,177.3,53.5z"/>
		<path class="st0" d="M145.4,15.8h-4.5c0,0,0,0,0,0l-5.7,0c-0.2,0-0.5,0.1-0.6,0.3l-5.2,5.3c-1.1,1.1-0.3,2.9,1.2,2.9l14.3,0v0h2.4
			c1.4,0,2.5,1.1,2.5,2.5v11.7l0,0v2.5h-27.5c-0.9,0-1.7,0.7-1.7,1.7v5c0,0.9,0.7,1.7,1.7,1.7h6.7v1.8c0,1.4-1.1,2.5-2.5,2.5h-17.4
			c-1.4,0-2.5-1.1-2.5-2.5l0,0v-6.4c0,0,0,0,0,0V34.3c0-0.9-0.7-1.7-1.7-1.7h-5c-0.9,0-1.7,0.7-1.7,1.7v6v9.1
			c0,6.9,5.6,12.5,12.5,12.5h14c6.9,0,12.5-5.6,12.5-12.5v-0.1h14.1h1h4.1c0.9,0,1.7-0.7,1.7-1.7V28.4c0-0.1,0-0.3-0.1-0.4
			C157.7,21.2,152.2,15.8,145.4,15.8z"/>
		<path class="st0" d="M80,15.8h-2L87,6.7c1.1-1.1,0.3-2.9-1.2-2.9l-7.4,0c-0.2,0-0.5,0.1-0.6,0.3L67.3,14.7l-6.7,6.7
			c-1.1,1.1-0.3,2.9,1.2,2.9h3.1c0,0,0.1,0,0.1,0l15.1,0c2.3,0,4.1,1.8,4.1,4.1v10.1v2.5H64.6l0,0l0,0H50.4c-1.4,0-2.5-1.1-2.5-2.5
			V14.5h0v-1.1c0-0.9-0.7-1.7-1.7-1.7h-5c-0.9,0-1.7,0.7-1.7,1.7v16.2v7.2v0.3c0,0.1,0,0.2,0,0.3C39.9,44,45.3,49.3,52,49.3h4.4
			c0.1,0,0.1,0,0.2,0h29.2h1h4.1c0.9,0,1.7-0.7,1.7-1.7V28.4c0-0.1,0-0.3-0.1-0.4C92.3,21.2,86.7,15.8,80,15.8z"/>
		<path class="st0" d="M181.5,24.2h-5c-0.9,0-1.7,0.7-1.7,1.7V27h0v11.4c0,1.4-1.1,2.5-2.5,2.5h-14.2l0,0l0,4.2l4.2,4.2h8.4
			c6.7,0,12.2-5.3,12.5-11.9c0-0.1,0-0.2,0-0.3v-0.3v-7.2v-3.7C183.2,25,182.4,24.2,181.5,24.2z"/>
		<path class="st0" d="M33.6,11.7h-5c-0.9,0-1.7,0.7-1.7,1.7v1.1h0v23.9c0,1.4-1.1,2.5-2.5,2.5h-5.7c-0.1,0-0.2,0-0.4,0h-5
			c0,0-0.1,0-0.1,0c0,0-0.1,0-0.1,0H5c-0.9,0-1.7,0.7-1.7,1.7v5.1c0,0.9,0.7,1.7,1.7,1.7h8.1c0,0,0.1,0,0.1,0c0,0,0.1,0,0.1,0h1.5
			h3.6h4.4c6.7,0,12.2-5.3,12.5-11.9c0-0.1,0-0.2,0-0.3v-0.3v-7.2V13.3C35.3,12.4,34.6,11.7,33.6,11.7z"/>
	</g>
</g>
</svg>
