<?xml version="1.0" encoding="utf-8"?>
<!-- Generator: Adobe Illustrator 27.0.0, SVG Export Plug-In . SVG Version: 6.00 Build 0)  -->
<svg version="1.1" id="Layer_1" xmlns="http://www.w3.org/2000/svg" xmlns:xlink="http://www.w3.org/1999/xlink" x="0px" y="0px"
	 viewBox="0 0 1000 274" style="enable-background:new 0 0 1000 274;" xml:space="preserve">
<style type="text/css">
	.st0{fill:#FFFFFF;}
</style>
<g>
	<path class="st0" d="M941.7,56.4h-22.9c0,0,0,0,0,0H870c-4.3,0-7.8,3.5-7.8,7.8V88c0,4.3,3.5,7.8,7.8,7.8h48.7c0,0,0,0,0,0h30.8
		c6.5,0,11.8,5.3,11.8,11.8v55.4c0,6.5-5.3,11.8-11.8,11.8l0,0h-30.4c-0.1,0-0.1,0-0.2,0h-48.7c-4.3,0-7.8,3.5-7.8,7.8v23.8
		c0,4.3,3.5,7.8,7.8,7.8h28.6h42.9c32.7,0,59.2-26.5,59.2-59.2v-39.6C1000.9,82.9,974.4,56.4,941.7,56.4z"/>
	<path class="st0" d="M38.2,149.8c1.2,3.2,4.2,5.3,7.6,5.3H71c5.5,0,9.4-5.5,7.5-10.7L41.2,41.8c-1.2-3.2-4.2-5.3-7.5-5.3H8.3
		C2.8,36.5-1,42,0.8,47.1L38.2,149.8z"/>
	<path class="st0" d="M683.5,234.2h-23.8c-4.3,0-7.8,3.5-7.8,7.8v24c0,4.3,3.5,7.8,7.8,7.8h23.8c4.3,0,7.8-3.5,7.8-7.8v-24
		C691.4,237.7,687.9,234.2,683.5,234.2z"/>
	<path class="st0" d="M821.4,234.1h-23.8c-0.2,0-0.4,0-0.6,0.1c-0.2,0-0.4-0.1-0.6-0.1h-38.4c-4.3,0-7.8,3.5-7.8,7.8v24
		c0,4.3,3.5,7.8,7.8,7.8h38.4c0.2,0,0.4,0,0.6-0.1c0.2,0,0.4,0.1,0.6,0.1h23.8c4.3,0,7.8-3.5,7.8-7.8v-24
		C829.2,237.6,825.7,234.1,821.4,234.1z"/>
	<path class="st0" d="M671,56.4h-21.4c0,0-0.1,0-0.1,0l-27,0c-1.1,0-2.2,0.4-3,1.2l-24.8,24.8c-5,5-1.4,13.5,5.6,13.5l67.4,0v0h11.2
		c6.5,0,11.8,5.3,11.8,11.8v55.4l0.2,0v11.8H561.1c-4.3,0-7.8,3.5-7.8,7.8v23.8c0,4.3,3.5,7.8,7.8,7.8h31.5v8.4
		c0,6.5-5.3,11.8-11.8,11.8h-82.1c-6.5,0-11.8-5.3-11.8-11.8l0,0v-30.4c0-0.1,0-0.1,0-0.2v-48.6c0-4.3-3.5-7.8-7.8-7.8h-23.8
		c-4.3,0-7.8,3.5-7.8,7.8v28.5v42.9c0,32.7,26.5,59.2,59.2,59.2h66.3c32.7,0,59.2-26.5,59.2-59.2v-0.5h66.6h4.5h19.3
		c4.3,0,7.8-3.5,7.8-7.8v-90.9c0-0.7-0.1-1.3-0.3-2C729,81.8,703,56.4,671,56.4z"/>
	<path class="st0" d="M361.9,56.4h-9.6l43-43c5-5,1.5-13.5-5.6-13.5l-35,0c-1.1,0-2.2,0.4-3,1.2L302,50.8l-31.5,31.5
		c-5,5-1.5,13.5,5.6,13.5h14.7c0.2,0,0.3,0,0.5,0l71.1,0c10.8,0,19.5,8.7,19.5,19.5V163v11.8h-92.3l0-0.2l-0.1,0.1h-67.2
		c-6.5,0-11.8-5.3-11.8-11.8v-113h0v-5.4c0-4.3-3.5-7.8-7.8-7.8h-23.8c-4.3,0-7.8,3.5-7.8,7.8v76.4V155v1.5c0,0.5,0.1,1,0.2,1.5
		c1.6,31.3,27.4,56.2,59.1,56.2H251c0.3,0,0.6,0.1,1,0.1h137.7h4.5h19.3c4.3,0,7.8-3.5,7.8-7.8v-90.9c0-0.7-0.1-1.3-0.3-2
		C419.9,81.8,393.9,56.4,361.9,56.4z"/>
	<path class="st0" d="M841.2,95.9h-23.8c-4.3,0-7.8,3.5-7.8,7.8v5.4h0V163c0,6.5-5.3,11.8-11.8,11.8h-67.2l-0.1-0.1l0,19.9
		l19.7,19.7h39.7c31.7,0,57.5-24.9,59.1-56.2c0.1-0.5,0.2-1,0.2-1.5v-1.5V121v-17.3C849,99.4,845.5,95.9,841.2,95.9z"/>
	<path class="st0" d="M143.2,36.6h-23.8c-4.3,0-7.8,3.5-7.8,7.8v5.4h0v113c0,6.5-5.3,11.8-11.8,11.8H72.9c-0.6-0.1-1.1-0.2-1.7-0.2
		H47.3c-0.2,0-0.4,0-0.6,0.1c-0.2,0-0.4-0.1-0.6-0.1H7.8c-4.3,0-7.8,3.5-7.8,7.8v24c0,4.3,3.5,7.8,7.8,7.8h38.4c0.2,0,0.4,0,0.6-0.1
		c0.2,0,0.4,0.1,0.6,0.1h6.8h17h20.7c31.7,0,57.5-24.9,59.1-56.2c0.1-0.5,0.2-1,0.2-1.5V155v-34.1V44.5
		C151.1,40.1,147.6,36.6,143.2,36.6z"/>
</g>
</svg>
