<?xml version="1.0" encoding="utf-8"?>
<!-- Generator: Adobe Illustrator 27.0.0, SVG Export Plug-In . SVG Version: 6.00 Build 0)  -->
<svg version="1.1" id="Layer_1" xmlns="http://www.w3.org/2000/svg" xmlns:xlink="http://www.w3.org/1999/xlink" x="0px" y="0px"
	 viewBox="0 0 1024 1024" style="enable-background:new 0 0 1024 1024;" xml:space="preserve">
<style type="text/css">
	.st0{fill:#EC1944;}
	.st1{fill:#FFFFFF;}
</style>
<path class="st0" d="M844,1024H180C80.6,1024,0,943.4,0,844V180C0,80.6,80.6,0,180,0h664c99.4,0,180,80.6,180,180v664
	C1024,943.4,943.4,1024,844,1024z"/>
<path class="st1" d="M795.2,458.7l-49.1-49.1c-4.7-4.7-12.5-4.3-16.6,1c-48,62.8-127.5,103.9-217.6,104c-90,0-169.6-41.1-217.6-104
	c-4-5.3-11.9-5.7-16.6-1l-49.1,49.1c-6.7,6.7-7.3,17.4-1.3,24.7c67.6,82,169.8,134.3,284.3,134.3v0h0.2h0.2v0
	c114.5-0.1,216.8-52.3,284.4-134.3C802.5,476.1,801.9,465.4,795.2,458.7"/>
</svg>
