<svg width="20" height="20" viewBox="0 0 20 20" fill="none" xmlns="http://www.w3.org/2000/svg">
        <path d="M9.97942 0.000354744C9.88649 0.00425002 9.79698 0.0365325 9.72296 0.0928535C9.64894 0.149175 9.59395 0.226828 9.56542 0.315355L7.42542 6.95036L0.455417 6.93636C0.35931 6.93627 0.265642 6.96661 0.187846 7.02304C0.110049 7.07947 0.0521187 7.15909 0.0223606 7.25047C-0.00739752 7.34185 -0.00745475 7.44032 0.0221968 7.53173C0.0518484 7.62315 0.109686 7.70283 0.187417 7.75936L5.83542 11.8464L3.66642 18.4744C3.63667 18.5657 3.63663 18.6642 3.66628 18.7556C3.69593 18.847 3.75377 18.9267 3.83149 18.9832C3.90921 19.0397 4.00283 19.0701 4.09892 19.0702C4.19502 19.0702 4.28866 19.0398 4.36642 18.9834L9.99942 14.8734L15.6334 18.9834C15.7112 19.0398 15.8048 19.0702 15.9009 19.0702C15.997 19.0701 16.0906 19.0397 16.1683 18.9832C16.2461 18.9267 16.3039 18.847 16.3336 18.7556C16.3632 18.6642 16.3632 18.5657 16.3334 18.4744L14.1644 11.8464L19.8124 7.75936C19.8901 7.70289 19.9479 7.62329 19.9776 7.53197C20.0072 7.44065 20.0073 7.34228 19.9776 7.25095C19.948 7.15961 19.8902 7.07999 19.8126 7.02348C19.735 6.96698 19.6414 6.93648 19.5454 6.93636L12.5754 6.95036L10.4314 0.315355C10.4009 0.220818 10.3403 0.138855 10.2589 0.0819778C10.1775 0.0251005 10.0797 -0.00356594 9.98042 0.000354744H9.97942Z" fill="#F9BC00"/>
</svg>
